
<svg width="34px" height="27px" viewBox="-6 -2 42 27" version="1.1" xmlns="http://www.w3.org/2000/svg" xmlns:xlink="http://www.w3.org/1999/xlink">
    <g id="Symbols" stroke="none" stroke-width="1" fill="none" fill-rule="evenodd">
        <g id="developersite-nav-Home" transform="translate(-120.000000, -28.000000)">
            <g id="NAVIGATION">
                <g id="logo" transform="translate(120.000000, 28.000000)">
                    <g id="Website">
                        <path d="M24.5983891,17.3425663 C24.5241864,17.2082434 24.3419687,17.0982553 24.1935633,17.0982553 L18.0881534,17.0982553 C17.939748,17.0982553 17.8181818,17.225154 17.8181818,17.3803747 L17.8181818,26.6951278 C17.8181818,26.8503485 17.939748,26.9772472 18.0881534,26.9772472 L29.6515414,26.9772472 C29.7999468,26.9772472 29.8607299,26.8672591 29.7865272,26.7329362 L24.5983891,17.3425663 Z" id="Fill-13" fill="#00C08B"></path>
                        <path d="M11.7300437,17.0982553 L5.62432269,17.0982553 C5.47579413,17.0982553 5.29371838,17.2082434 5.21951987,17.3425663 L0.0316763874,26.7329362 C-0.0425221146,26.8672591 0.0181259517,26.9772472 0.166654513,26.9772472 L11.7300437,26.9772472 C11.8784408,26.9772472 12,26.8503485 12,26.6951278 L12,17.3803747 C12,17.225154 11.8784408,17.0982553 11.7300437,17.0982553" id="Fill-15" fill="#00C08B"></path>
                        <path d="M8.53053219,11.7787981 L21.2875788,11.7787981 C21.4363856,11.7787981 21.4971472,11.6697828 21.4228097,11.5364813 L15.0442864,0.0999761298 C14.969949,-0.0333253766 14.8482939,-0.0333253766 14.7739564,0.0999761298 L8.39543308,11.5364813 C8.32096381,11.6697828 8.38185727,11.7787981 8.53053219,11.7787981" id="Fill-17" fill="#00C08B"></path>
                    </g>
                </g>
            </g>
        </g>
    </g>
</svg>