
<svg width="132px" height="27px" viewBox="0 0 132 27" version="1.1" xmlns="http://www.w3.org/2000/svg" xmlns:xlink="http://www.w3.org/1999/xlink">
    <g id="Symbols" stroke="none" stroke-width="1" fill="none" fill-rule="evenodd">
        <g id="developersite-nav-Home" transform="translate(-120.000000, -28.000000)">
            <g id="NAVIGATION">
                <g id="logo" transform="translate(120.000000, 28.000000)">
                    <g id="Website">
                        <path d="M43.7337594,6.07937966 L31.902734,6.07937966 C31.7561784,6.07937966 31.6363636,6.20683999 31.6363636,6.3626095 L31.6363636,9.0249148 C31.6363636,9.18068431 31.7561784,9.30828274 31.902734,9.30828274 L35.8050863,9.30828274 C35.9515121,9.30828274 36.0713269,9.43574307 36.0713269,9.59151258 L36.0713269,22.5144439 C36.0713269,22.6703515 36.1911416,22.7976737 36.3375674,22.7976737 L39.2991856,22.7976737 C39.4457413,22.7976737 39.565556,22.6703515 39.565556,22.5144439 L39.565556,9.59151258 C39.565556,9.43574307 39.6853708,9.30828274 39.8317966,9.30828274 L43.7337594,9.30828274 C43.8801852,9.30828274 44,9.18068431 44,9.0249148 L44,6.3626095 C44,6.20683999 43.8801852,6.07937966 43.7337594,6.07937966" id="Fill-1" fill="#FFFFFF"></path>
                        <path d="M60.0949387,19.4964369 L52.5207286,19.4964369 C52.3728925,19.4964369 52.2520309,19.3689776 52.2520309,19.2132094 L52.2520309,16.3120262 C52.2520309,16.156258 52.3728925,16.0286606 52.5207286,16.0286606 L59.055372,16.0286606 C59.2030772,16.0286606 59.3239388,15.9012013 59.3239388,15.7454331 L59.3239388,13.1313441 C59.3239388,12.9754377 59.2030772,12.8479785 59.055372,12.8479785 L52.5207286,12.8479785 C52.3728925,12.8479785 52.2520309,12.7205192 52.2520309,12.564751 L52.2520309,9.6871816 C52.2520309,9.53127529 52.3728925,9.4039541 52.5207286,9.4039541 L59.8461446,9.4039541 C59.9939807,9.4039541 60.1147113,9.27635672 60.1147113,9.1205885 L60.1147113,6.36274525 C60.1147113,6.20683894 59.9939807,6.07937966 59.8461446,6.07937966 L48.9959704,6.07937966 C48.8481343,6.07937966 48.7272727,6.20683894 48.7272727,6.36274525 L48.7272727,22.5143081 C48.7272727,22.6702144 48.8481343,22.7976737 48.9959704,22.7976737 L60.0949387,22.7976737 C60.2426438,22.7976737 60.3636364,22.6702144 60.3636364,22.5143081 L60.3636364,19.7798025 C60.3636364,19.6238962 60.2426438,19.4964369 60.0949387,19.4964369" id="Fill-3" fill="#FFFFFF"></path>
                        <path d="M76.0875203,19.4732099 L69.7189445,19.4732099 C69.5670874,19.4732099 69.4428284,19.3457496 69.4428284,19.1899801 L69.4428284,6.3626095 C69.4428284,6.20683999 69.3185694,6.07937966 69.1665777,6.07937966 L66.0944326,6.07937966 C65.9424408,6.07937966 65.8181818,6.20683999 65.8181818,6.3626095 L65.8181818,22.5144439 C65.8181818,22.6702134 65.9424408,22.7976737 66.0944326,22.7976737 L76.0875203,22.7976737 C76.2393774,22.7976737 76.3636364,22.6702134 76.3636364,22.5144439 L76.3636364,19.7564397 C76.3636364,19.6006702 76.2393774,19.4732099 76.0875203,19.4732099" id="Fill-5" fill="#FFFFFF"></path>
                        <path d="M95.3683199,6.07937966 L92.3866442,6.07937966 C92.2392267,6.07937966 92.1184698,6.20683999 92.1184698,6.3626095 L92.1184698,16.5591601 C92.1184698,16.7150677 92.0455452,16.7410293 91.9564151,16.6168832 L84.5463334,6.30502449 C84.4572033,6.1808784 84.2635218,6.07937966 84.1161043,6.07937966 L81.3590835,6.07937966 C81.2115353,6.07937966 81.0909091,6.20683999 81.0909091,6.3626095 L81.0909091,22.5144439 C81.0909091,22.6703515 81.2115353,22.7976737 81.3590835,22.7976737 L84.3415433,22.7976737 C84.4890915,22.7976737 84.6097177,22.6703515 84.6097177,22.5144439 L84.6097177,12.6051278 C84.6097177,12.4493583 84.6825117,12.4233967 84.7716417,12.5476809 L91.9566765,22.5718908 C92.0456759,22.696175 92.2392267,22.7976737 92.3866442,22.7976737 L95.3683199,22.7976737 C95.5157374,22.7976737 95.6363636,22.6703515 95.6363636,22.5144439 L95.6363636,6.3626095 C95.6363636,6.20683999 95.5157374,6.07937966 95.3683199,6.07937966" id="Fill-7" fill="#FFFFFF"></path>
                        <path d="M114.011823,6.07937966 L110.66414,6.07937966 C110.513436,6.07937966 110.328396,6.18971639 110.252911,6.32449568 L107.046446,12.0526156 C106.970961,12.187533 106.847378,12.187533 106.772026,12.0526156 L103.565294,6.32449568 C103.489809,6.18971639 103.304636,6.07937966 103.153932,6.07937966 L99.8063827,6.07937966 C99.6555453,6.07937966 99.5932864,6.19013067 99.6679703,6.32546234 L104.975738,15.9508581 C105.050288,16.0861897 105.111345,16.3244011 105.111345,16.4803087 L105.111345,22.5144439 C105.111345,22.6703515 105.234794,22.7976737 105.385498,22.7976737 L108.433643,22.7976737 C108.584347,22.7976737 108.707662,22.6703515 108.707662,22.5144439 L108.707662,16.4803087 C108.707662,16.3244011 108.768719,16.0861897 108.843402,15.9508581 L114.150235,6.32546234 C114.224919,6.19013067 114.162527,6.07937966 114.011823,6.07937966" id="Fill-9" fill="#FFFFFF"></path>
                        <path d="M131.962338,22.5601528 L126.841402,14.3772822 C126.759716,14.2466457 126.759317,14.0326007 126.840604,13.90155 L131.550051,6.31745291 C131.631337,6.18654024 131.575062,6.07937966 131.424994,6.07937966 L127.654537,6.07937966 C127.504469,6.07937966 127.31542,6.18667833 127.234533,6.31786719 L124.476369,10.7914073 C124.395481,10.9227343 124.262974,10.9227343 124.182086,10.7915454 L121.422991,6.31786719 C121.342104,6.18667833 121.153055,6.07937966 121.002987,6.07937966 L117.256344,6.07937966 C117.106276,6.07937966 117.049601,6.18667833 117.130489,6.31800529 L121.863217,13.9962821 C121.944105,14.1276091 121.943041,14.3416541 121.860956,14.4720144 L116.765297,22.5605671 C116.683079,22.6910655 116.738689,22.7976737 116.888757,22.7976737 L120.658549,22.7976737 C120.808617,22.7976737 120.997666,22.690375 121.078686,22.5591862 L124.181953,17.5346528 C124.262841,17.4036021 124.395747,17.4033259 124.477167,17.5342385 L127.601188,22.5597385 C127.682608,22.6906512 127.872055,22.7976737 128.022123,22.7976737 L131.83808,22.7976737 C131.988148,22.7976737 132.044157,22.6907893 131.962338,22.5601528" id="Fill-11" fill="#FFFFFF"></path>
                        <path d="M24.5983891,17.3425663 C24.5241864,17.2082434 24.3419687,17.0982553 24.1935633,17.0982553 L18.0881534,17.0982553 C17.939748,17.0982553 17.8181818,17.225154 17.8181818,17.3803747 L17.8181818,26.6951278 C17.8181818,26.8503485 17.939748,26.9772472 18.0881534,26.9772472 L29.6515414,26.9772472 C29.7999468,26.9772472 29.8607299,26.8672591 29.7865272,26.7329362 L24.5983891,17.3425663 Z" id="Fill-13" fill="#00C08B"></path>
                        <path d="M11.7300437,17.0982553 L5.62432269,17.0982553 C5.47579413,17.0982553 5.29371838,17.2082434 5.21951987,17.3425663 L0.0316763874,26.7329362 C-0.0425221146,26.8672591 0.0181259517,26.9772472 0.166654513,26.9772472 L11.7300437,26.9772472 C11.8784408,26.9772472 12,26.8503485 12,26.6951278 L12,17.3803747 C12,17.225154 11.8784408,17.0982553 11.7300437,17.0982553" id="Fill-15" fill="#00C08B"></path>
                        <path d="M8.53053219,11.7787981 L21.2875788,11.7787981 C21.4363856,11.7787981 21.4971472,11.6697828 21.4228097,11.5364813 L15.0442864,0.0999761298 C14.969949,-0.0333253766 14.8482939,-0.0333253766 14.7739564,0.0999761298 L8.39543308,11.5364813 C8.32096381,11.6697828 8.38185727,11.7787981 8.53053219,11.7787981" id="Fill-17" fill="#00C08B"></path>
                    </g>
                </g>
            </g>
        </g>
    </g>
</svg>